HIERARCHY
ROOT root
{
	OFFSET	0	13.1	24.9
	CHANNELS 6  Xposition Yposition Zposition Xrotation Yrotation Zrotation
	JOINT spine_1
	{
		OFFSET	0	9.99999	0
		CHANNELS 3  Xrotation Yrotation Zrotation
		JOINT spine_2
		{
			OFFSET	0	112	-10
			CHANNELS 3  Xrotation Yrotation Zrotation
			JOINT spine_3
			{
				OFFSET	0	206.5	19.3
				CHANNELS 3  Xrotation Yrotation Zrotation
				JOINT spine_4
				{
					OFFSET	0	110.4	14.6
					CHANNELS 3  Xrotation Yrotation Zrotation
					JOINT neck_1
					{
						OFFSET	0	71.8	-50.3
						CHANNELS 3  Xrotation Yrotation Zrotation
						JOINT neck_2
						{
							OFFSET	0	86.2	-25.8
							CHANNELS 3  Xrotation Yrotation Zrotation
							JOINT head_ee
							{
								OFFSET	0	179.8	-8.7
								CHANNELS 3  Xrotation Yrotation Zrotation
								End Site
								{
									OFFSET	1	0	0
								}
							}
						}
					}
					JOINT left_clavicle
					{
						OFFSET	-43.2	22.4	-70.8
						CHANNELS 3  Xrotation Yrotation Zrotation
						JOINT left_shoulder
						{
							OFFSET	-93.9	-5.79999	48.7
							CHANNELS 3  Xrotation Yrotation Zrotation
							JOINT left_elbow
							{
								OFFSET	-291.4	-30.8	15.2
								CHANNELS 3  Xrotation Yrotation Zrotation
								JOINT left_lowarm_twist
								{
									OFFSET	-110.7	-3.89999	13.6
									CHANNELS 3  Xrotation Yrotation Zrotation
									JOINT left_hand
									{
										OFFSET	-110.7	-3.89999	13.6
										CHANNELS 3  Xrotation Yrotation Zrotation
										JOINT left_ee
										{
											OFFSET	-80.8	-5.10001	12.1
											CHANNELS 3  Xrotation Yrotation Zrotation
											End Site
											{
												OFFSET	1	0	0
											}
										}
									}
								}
							}
						}
					}
					JOINT right_clavicle
					{
						OFFSET	43.2	22.4	-70.8
						CHANNELS 3  Xrotation Yrotation Zrotation
						JOINT right_shoulder
						{
							OFFSET	93.9	-5.79999	48.7
							CHANNELS 3  Xrotation Yrotation Zrotation
							JOINT right_elbow
							{
								OFFSET	291.4	-30.8	15.2
								CHANNELS 3  Xrotation Yrotation Zrotation
								JOINT right_lowarm_twist
								{
									OFFSET	110.7	-3.89999	13.6
									CHANNELS 3  Xrotation Yrotation Zrotation
									JOINT right_hand
									{
										OFFSET	110.7	-3.89999	13.6
										CHANNELS 3  Xrotation Yrotation Zrotation
										JOINT right_ee
										{
											OFFSET	80.8	-5.10001	12.1
											CHANNELS 3  Xrotation Yrotation Zrotation
											End Site
											{
												OFFSET	1	0	0
											}
										}
									}
								}
							}
						}
					}
				}
			}
		}
	}
	JOINT left_hip
	{
		OFFSET	-82.8	-127.5	0.300001
		CHANNELS 3  Xrotation Yrotation Zrotation
		JOINT left_knee
		{
			OFFSET	-28.2	-396.7	2.2
			CHANNELS 3  Xrotation Yrotation Zrotation
			JOINT left_ankle
			{
				OFFSET	-11.7	-411.3	35.4
				CHANNELS 3  Xrotation Yrotation Zrotation
				JOINT left_toes
				{
					OFFSET	0	-60	-88.6
					CHANNELS 3  Xrotation Yrotation Zrotation
					JOINT left_foot_ee
					{
						OFFSET	-22.5	-16.5	-42.2
						CHANNELS 3  Xrotation Yrotation Zrotation
						End Site
						{
							OFFSET	1	0	0
						}
					}
				}
			}
		}
	}
	JOINT right_hip
	{
		OFFSET	82.8	-127.5	0.300001
		CHANNELS 3  Xrotation Yrotation Zrotation
		JOINT right_knee
		{
			OFFSET	28.2	-396.7	2.2
			CHANNELS 3  Xrotation Yrotation Zrotation
			JOINT right_ankle
			{
				OFFSET	11.7	-411.3	35.4
				CHANNELS 3  Xrotation Yrotation Zrotation
				JOINT right_toes
				{
					OFFSET	0	-60	-88.6
					CHANNELS 3  Xrotation Yrotation Zrotation
					JOINT right_foot_ee
					{
						OFFSET	22.5	-16.5	-42.2
						CHANNELS 3  Xrotation Yrotation Zrotation
						End Site
						{
							OFFSET	1	0	0
						}
					}
				}
			}
		}
	}
}
MOTION
Frames: 10
Frame Time: 0.02
2817.40856295 706.457 -1591.43602454 105.123787881 82.2099922365 -100.577803275 -3.20259 -0.50631 -2.25448 -3.19984 -0.361864 -2.28211 -3.1812 0.253742 -2.29664 -3.18854 -0.112055 -2.30789 -1.65466 0.819708 9.69625 -1.33745 -6.27641 10.3744 -0.0 0.0 -0.0 10.9142 -4.90586 21.7852 13.1348 -21.1352 62.2707 0.740328 -20.1398 0.131473 -27.2276 -1.70619 3.00091 -0.819341 11.9436 -0.263952 -0.0 0.0 -0.0 4.29081 15.1908 -7.31913 -9.58479 8.78043 -61.0533 1.52886 37.1361 -0.513597 -2.27296 0.085611 -0.277599 -1.08863 -6.33325 4.46777 0.0 0.0 0.0 3.13156 -1.07409 2.17876 -12.8407 0.31223 1.94174 17.6044 9.37146 -2.43099 -26.8674 0.0 0.0 -0.0 0.0 -0.0 1.80275 12.7237 -2.76934 -49.0442 1.13995 -7.21442 37.8071 -2.55197 4.66793 -40.1075 0.0 0.0 0.0 0.0 0.0 
2808.66501147 707.824 -1588.80063533 98.7387275195 82.5489816213 -93.921912954 -2.94633 -0.453715 -2.47114 -2.94298 -0.295601 -2.49499 -2.92548 0.362878 -2.4861 -2.9341 -0.0341808 -2.51219 -3.93296 0.573566 10.0975 -3.60431 -6.7166 10.5294 -0.0 0.0 -0.0 10.9741 -6.55424 21.9553 15.3169 -21.907 62.2954 0.777945 -21.0752 0.144714 -26.1231 -1.61025 2.89682 -0.869672 10.6862 -1.13019 -0.0 0.0 -0.0 3.93365 15.1543 -6.56254 -12.005 8.29278 -61.7333 1.46358 35.9404 -0.474727 -2.45848 0.093084 -0.300106 -1.16002 -7.05302 4.61235 0.0 0.0 0.0 1.57885 -0.897504 2.12687 -10.8353 0.292286 1.6347 17.2857 9.97941 -2.39124 -27.3612 0.0 0.0 -0.0 0.0 -0.0 5.5358 11.9765 -2.15346 -49.5771 1.18554 -7.28266 36.1917 -1.99945 4.52073 -40.1713 0.0 0.0 0.0 0.0 0.0 
2790.704295 711.226 -1582.08072851 99.5134901691 82.8681923331 -94.7972553832 -2.66228 -0.419003 -2.63069 -2.65846 -0.250816 -2.652 -2.64204 0.434003 -2.62826 -2.65168 0.0136241 -2.66379 -6.01024 1.08105 10.7402 -5.66279 -5.9468 11.0752 -0.0 0.0 -0.0 11.2066 -8.14426 22.4898 16.79 -22.4169 62.2636 0.82088 -22.1285 0.160521 -25.1944 -1.53114 2.80788 -0.749162 8.25847 -1.41205 -0.0 0.0 -0.0 3.38157 14.6448 -5.43441 -15.1626 7.62845 -62.8793 1.4986 36.5864 -0.495441 -2.49517 0.0945713 -0.304554 -1.21202 -7.75014 4.63765 0.0 0.0 0.0 -0.416246 -0.679523 2.51282 -8.58477 0.257124 1.29118 17.5876 10.2311 -2.43041 -27.4579 0.0 0.0 -0.0 0.0 -0.0 10.2457 10.55 -2.03159 -49.8036 1.20511 -7.31153 34.5626 -1.7218 4.3658 -40.1733 0.0 0.0 0.0 0.0 0.0 
2777.35486965 710.196 -1578.94491788 90.9883048097 83.3182352782 -85.928145578 -2.49826 -0.363378 -2.93855 -2.49347 -0.175738 -2.9557 -2.47887 0.57598 -2.9044 -2.49063 0.110265 -2.95886 -6.47558 2.0597 10.942 -6.12592 -4.20752 11.4188 -0.0 0.0 -0.0 11.1918 -9.12231 22.4637 18.1932 -22.8251 62.0676 0.87841 -23.5154 0.182836 -24.2313 -1.45065 2.71432 -0.682396 6.37141 -1.79567 -0.0 0.0 -0.0 3.11942 14.1397 -4.9239 -17.7051 6.62576 -64.1288 1.40296 34.7967 -0.439635 -2.92008 0.111995 -0.356001 -1.29785 -8.48657 4.8618 0.0 0.0 0.0 -1.68536 -0.490608 2.06556 -7.36266 0.232383 1.10528 18.1335 10.52 -2.50069 -27.4705 0.0 0.0 -0.0 0.0 -0.0 12.3304 7.22968 -2.40864 -49.7208 1.19794 -7.30097 34.507 -1.31728 4.36257 -39.9907 0.0 0.0 0.0 0.0 0.0 
2741.97066848 709.656 -1582.25757876 74.2432103417 82.5925166836 -67.2757744064 -2.22875 -0.344111 -3.37696 -2.22241 -0.128655 -3.39199 -2.20813 0.716241 -3.31809 -2.22345 0.183537 -3.38947 -5.27049 2.53931 9.73614 -4.99572 -2.63211 10.3577 -0.0 0.0 -0.0 11.1095 -9.59123 22.2813 20.1456 -23.1301 60.7931 1.10265 -28.6434 0.281514 -22.9219 -1.34377 2.58499 -0.663542 1.84788 -3.63277 -0.0 0.0 -0.0 2.57403 11.5955 -4.00438 -23.1371 5.23071 -66.2558 1.03024 27.0369 -0.247696 -4.14698 0.164446 -0.503816 -1.48803 -8.86368 5.92168 0.0 0.0 0.0 -5.31624 -1.1861 -0.454105 -6.32127 0.208175 0.947302 20.8572 10.3711 -2.84116 -27.2127 0.0 0.0 -0.0 0.0 -0.0 16.6731 0.817965 -1.70105 -47.2409 0.990454 -6.98052 31.8195 -0.680349 4.09655 -40.2717 0.0 0.0 0.0 0.0 0.0 
2724.45937718 706.537 -1575.6508532 68.023528221 82.4227953378 -60.2860275592 -1.9773 -0.386192 -3.49768 -1.97051 -0.162983 -3.51514 -1.95371 0.69819 -3.44903 -1.97028 0.14507 -3.51592 -4.37823 2.36544 8.8664 -4.14909 -2.43029 9.49097 -0.0 0.0 -0.0 11.1011 -9.51407 22.2628 20.14 -23.2378 59.6724 1.35123 -33.7951 0.41049 -22.4982 -1.30982 2.54263 -0.748762 -1.4294 -5.62963 -0.0 0.0 -0.0 2.18568 11.0493 -3.24473 -24.2538 4.30086 -66.7749 0.851692 22.8748 -0.172313 -2.95296 0.11336 -0.359977 -1.55814 -12.2017 4.82372 0.0 0.0 0.0 -7.43658 -0.572305 -1.19718 -5.90117 0.197596 0.883701 26.2875 10.2714 -3.48589 -27.6241 0.0 0.0 -0.0 0.0 -0.0 18.0062 -4.33493 -2.22371 -38.4048 0.368414 -5.77367 23.5101 -1.6177 3.16907 -40.1498 0.0 0.0 0.0 0.0 0.0 
2708.11733188 706.19 -1574.4077823 60.4403025531 82.8857511052 -52.5109162174 -1.75987 -0.40862 -3.62629 -1.75257 -0.177199 -3.64491 -1.73438 0.702336 -3.58107 -1.75225 0.128352 -3.64695 -5.05935 2.89845 10.0007 -4.77155 -2.2083 10.7015 -0.0 0.0 -0.0 10.8729 -9.43959 21.7573 20.328 -23.2829 58.6023 1.58382 -38.1142 0.54715 -22.4253 -1.30401 2.53531 -0.81775 -3.86409 -7.15742 -0.0 0.0 -0.0 1.89321 10.1179 -2.7254 -25.1697 3.59198 -66.9866 0.724658 19.7468 -0.126128 -2.00418 0.0749134 -0.244951 -1.50645 -14.4806 3.44136 0.0 0.0 0.0 -8.50979 1.14427 -1.5868 -4.32429 0.153734 0.645685 30.0512 10.4889 -3.90475 -28.2489 0.0 0.0 -0.0 0.0 -0.0 18.5066 -7.75187 -1.88594 -32.1925 0.0461388 -4.87579 18.6271 -1.10662 2.57376 -39.957 0.0 0.0 0.0 0.0 0.0 
2690.65441049 706.282 -1579.12844848 58.0938744916 82.8295830973 -50.1865934553 -1.62916 -0.422826 -3.64839 -1.62178 -0.189972 -3.66787 -1.60283 0.68714 -3.60801 -1.62098 0.109099 -3.67116 -3.87829 2.47152 8.4986 -3.66877 -2.02694 9.15663 -0.0 0.0 -0.0 10.8198 -9.24217 21.6403 21.1898 -23.8754 57.9859 1.7768 -41.3497 0.670552 -21.9539 -1.26668 2.48785 -0.905216 -5.72281 -8.5624 -0.0 0.0 -0.0 1.69265 9.19445 -2.40015 -25.9537 2.34569 -67.6987 0.633619 17.426 -0.0971053 -1.7298 0.064151 -0.21157 -1.65899 -15.5757 3.87694 0.0 0.0 0.0 -9.41544 -0.0211533 -1.3923 -4.45534 0.157628 0.66542 32.714 10.5955 -4.18552 -28.2486 0.0 0.0 -0.0 0.0 -0.0 18.9535 -10.2396 -1.79422 -27.8575 -0.120148 -4.23145 14.5615 -1.94927 2.04481 -40.0156 0.0 0.0 0.0 0.0 0.0 
2671.9714507 701.665 -1581.98681035 60.0042198626 82.263967985 -51.9828832447 -1.65933 -0.54923 -3.70856 -1.65173 -0.312301 -3.73594 -1.62399 0.585652 -3.70299 -1.64312 -0.00608866 -3.74894 -4.24935 2.62461 10.4208 -3.93075 -3.1725 11.1457 -0.0 0.0 -0.0 10.6869 -8.78396 21.3474 21.3222 -23.647 57.298 1.92424 -43.6231 0.770152 -22.3518 -1.29817 2.52793 -1.09552 -7.28575 -10.5457 -0.0 0.0 -0.0 1.99767 7.98969 -3.14101 -26.5401 2.18167 -67.5017 0.516042 14.3397 -0.0649159 -1.2672 0.0463693 -0.155178 -1.70096 -18.0831 2.95279 0.0 0.0 0.0 -13.011 -0.00315042 -1.71909 -1.12228 0.0445811 0.166457 35.2648 14.7213 -4.48105 -28.291 0.0 0.0 -0.0 0.0 -0.0 19.6203 -11.717 -2.4116 -24.2782 -0.220375 -3.69138 11.5061 -2.70079 1.63321 -39.5755 0.0 0.0 0.0 0.0 0.0 
2657.39731565 693.29 -1589.55319304 59.5313480965 82.3868225894 -51.9596861845 -1.59303 -0.745705 -3.58121 -1.58605 -0.516466 -3.62133 -1.54614 0.354671 -3.64071 -1.56456 -0.224367 -3.65104 -5.11915 2.9188 11.2382 -4.7526 -3.09988 11.9703 -0.0 0.0 -0.0 10.5249 -8.98204 20.9913 22.6176 -22.5407 56.1827 2.21251 -47.6164 0.976309 -21.9467 -1.26611 2.48712 -1.28999 -9.01079 -12.6368 -0.0 0.0 -0.0 1.43668 7.17481 -2.07419 -26.1765 1.92316 -68.81 0.485883 13.5334 -0.057652 -0.710826 0.0255871 -0.0871707 -1.73146 -20.6942 1.90306 0.0 0.0 0.0 -14.7159 0.58589 -1.75482 3.43227 -0.156482 -0.503313 37.4318 17.0234 -4.72659 -28.4808 0.0 0.0 -0.0 0.0 -0.0 18.5805 -12.0427 -4.10071 -13.4011 -0.315881 -2.02765 7.49731 -3.03798 1.07867 -40.0966 0.0 0.0 0.0 0.0 0.0 
